<svg width="30" height="29" viewBox="0 0 30 29" fill="none" xmlns="http://www.w3.org/2000/svg">
<path fill-rule="evenodd" clip-rule="evenodd" d="M4.375 9.83086C4.375 8.34023 5.675 7.12617 7.27125 7.12617H22.7288C24.3188 7.12617 25.6125 8.34023 25.6125 9.83086V13.4133C23.5588 14.6098 21.1912 15.4477 18.6987 15.859C18.0137 14.5617 16.5887 13.7109 14.9875 13.7109C13.4 13.7109 11.9688 14.5582 11.2638 15.8484C8.78625 15.4395 6.4275 14.6051 4.375 13.4133V9.83086ZM13.38 4.10156H16.6075C17.4475 4.10156 18.1512 4.6418 18.36 5.36836H11.6262C11.8362 4.6418 12.5388 4.10156 13.38 4.10156ZM11.73 17.6965C12.205 17.7586 12.6388 17.4844 12.7638 17.0578C13.0425 16.1062 13.9362 15.4688 14.9875 15.4688C16.0275 15.4688 16.93 16.1203 17.1825 17.0531C17.29 17.4469 17.6675 17.7164 18.0912 17.7164C18.1337 17.7164 18.1775 17.7141 18.22 17.7082C21.4312 17.291 24.49 16.2258 27.0675 14.6273C27.33 14.4633 27.4875 14.1891 27.4875 13.8938V9.83086C27.4875 7.36992 25.3525 5.36836 22.7288 5.36836H20.2575C20.0237 3.66797 18.485 2.34375 16.6075 2.34375H13.38C11.5025 2.34375 9.965 3.6668 9.73 5.36836H7.27125C4.64 5.36836 2.5 7.36992 2.5 9.83086V13.8938C2.5 14.1891 2.6575 14.4645 2.92125 14.6273C5.495 16.2188 8.54125 17.2793 11.73 17.6965ZM14.0564 18.0282V19.5446C14.0564 20.0298 14.4764 20.4236 14.9939 20.4236C15.5114 20.4236 15.9314 20.0298 15.9314 19.5446V18.0282C15.9314 17.5431 15.5114 17.1493 14.9939 17.1493C14.4764 17.1493 14.0564 17.5431 14.0564 18.0282ZM25.6357 18.0667C25.6733 17.6167 26.0645 17.2581 26.5557 17.2581C27.072 17.2581 27.4907 17.6507 27.4907 18.1346C27.4907 18.1421 27.4759 18.3226 27.4537 18.5905C27.3997 19.2437 27.3029 20.4165 27.2745 20.8686C27.2032 21.9679 26.7483 23.0893 26.057 23.8698C25.0945 24.9573 23.8682 25.4659 22.2007 25.4694C21.427 25.4706 18.2295 25.4718 15.0308 25.4718C11.8333 25.4718 8.6345 25.4706 7.862 25.4694C6.19325 25.4659 4.967 24.9573 4.0045 23.8686C3.3145 23.0893 2.85825 21.9679 2.78825 20.8686C2.75943 20.4231 2.66466 19.2776 2.6102 18.6192C2.58674 18.3356 2.57075 18.1424 2.57075 18.1346C2.57075 17.6507 2.9895 17.2581 3.50575 17.2581C3.997 17.2581 4.38825 17.6167 4.42575 18.0667C4.42575 18.0667 4.61825 20.1163 4.6595 20.7632C4.70575 21.4792 5.01575 22.2585 5.44825 22.746C6.06075 23.4386 6.73825 23.7093 7.8645 23.7116C9.4095 23.7139 20.6508 23.7139 22.197 23.7116C23.3245 23.7093 24.002 23.4386 24.6132 22.7471C25.047 22.2585 25.357 21.4792 25.4032 20.7632C25.4432 20.1163 25.6357 18.0667 25.6357 18.0667Z" fill="white"/>
</svg>
