<svg width="30" height="28" viewBox="0 0 30 28" fill="none" xmlns="http://www.w3.org/2000/svg">
<path d="M23.7513 26.5419C21.7263 26.5419 19.8138 25.5619 18.7388 23.9519C18.1638 23.1236 17.8388 22.1318 17.8138 21.1168C17.7763 19.4134 18.5514 17.8268 19.9389 16.7534C20.9764 15.9484 22.2764 15.4936 23.6139 15.4586C25.2389 15.4469 26.7013 15.9719 27.8513 16.9986C29.0013 18.0252 29.6513 19.4019 29.6763 20.8836C29.7013 21.8986 29.4263 22.8902 28.8763 23.7652C28.5763 24.2552 28.1888 24.7102 27.7263 25.0952C26.7013 25.9936 25.3263 26.5186 23.8638 26.5419C23.8388 26.5419 23.8013 26.5419 23.7513 26.5419ZM23.7513 17.2086C23.7263 17.2086 23.6888 17.2086 23.6638 17.2086C22.7388 17.2319 21.8638 17.5352 21.1388 18.0952C20.1888 18.8302 19.6638 19.9152 19.6888 21.0819C19.7013 21.7702 19.9263 22.4468 20.3138 23.0184C21.0763 24.1618 22.4013 24.8619 23.8263 24.7919C24.8138 24.7686 25.7514 24.4186 26.4639 23.8002C26.7889 23.5319 27.0513 23.2286 27.2513 22.9019C27.6263 22.2952 27.8138 21.6186 27.8013 20.9302C27.7763 19.9152 27.3388 18.9701 26.5513 18.2701C25.8013 17.5818 24.8013 17.2086 23.7513 17.2086Z" fill="white"/>
<path d="M23.0611 23.0413C22.8236 23.0413 22.5986 22.9597 22.4111 22.7963L21.1486 21.6763C20.7736 21.338 20.7611 20.7897 21.1236 20.4397C21.4861 20.0897 22.0736 20.078 22.4486 20.4163L23.0611 20.9647L25.0236 19.1913C25.3986 18.853 25.9861 18.8647 26.3486 19.2147C26.7111 19.5647 26.6986 20.113 26.3236 20.4513L23.7111 22.808C23.5236 22.9597 23.2861 23.0413 23.0611 23.0413Z" fill="white"/>
<path d="M15.0016 15.5176C14.8391 15.5176 14.6766 15.4827 14.5266 15.4011L3.48915 9.43937C3.03915 9.19437 2.88912 8.65767 3.15162 8.23767C3.41412 7.81767 3.98915 7.67764 4.42665 7.92264L14.9891 13.6276L25.4891 7.95768C25.9391 7.71268 26.5141 7.86437 26.7641 8.2727C27.0266 8.6927 26.8641 9.22933 26.4266 9.47433L15.4641 15.4011C15.3266 15.4711 15.1641 15.5176 15.0016 15.5176Z" fill="white"/>
<path d="M15 26.0856C14.4875 26.0856 14.0625 25.6889 14.0625 25.2106V14.6289C14.0625 14.1506 14.4875 13.7539 15 13.7539C15.5125 13.7539 15.9375 14.1506 15.9375 14.6289V25.2106C15.9375 25.6889 15.5125 26.0856 15 26.0856Z" fill="white"/>
<path d="M14.9986 26.5439C13.8986 26.5439 12.7986 26.3222 11.9486 25.8672L5.27362 22.4139C3.46112 21.4805 2.03613 19.2289 2.03613 17.2922V10.6888C2.03613 8.75215 3.46112 6.5122 5.27362 5.5672L11.9486 2.11384C13.6486 1.21551 16.3236 1.21551 18.0361 2.11384L24.7111 5.5672C26.5236 6.50054 27.9486 8.75215 27.9486 10.6888V17.2922C27.9486 17.4089 27.9486 17.5022 27.9236 17.6189C27.8611 17.9222 27.6236 18.1789 27.3111 18.2722C26.9986 18.3772 26.6486 18.3072 26.3861 18.1089C24.9486 16.9422 22.7236 16.8955 21.2111 18.0272C20.2486 18.7389 19.6861 19.8239 19.6861 20.9789C19.6861 21.6672 19.8861 22.3439 20.2736 22.9272C20.3736 23.0905 20.4736 23.2189 20.5861 23.3472C20.7736 23.5455 20.8486 23.8139 20.7986 24.0705C20.7486 24.3272 20.5736 24.5489 20.3236 24.6772L18.0361 25.8554C17.1861 26.3221 16.0986 26.5439 14.9986 26.5439ZM14.9986 3.21051C14.2236 3.21051 13.4361 3.36218 12.8736 3.65385L6.19861 7.1072C4.98611 7.72554 3.93612 9.40548 3.93612 10.6888V17.2922C3.93612 18.5755 4.99861 20.2555 6.19861 20.8739L12.8736 24.3272C14.0111 24.9222 15.9986 24.9222 17.1361 24.3272L18.5361 23.6039C18.0736 22.8222 17.8236 21.9122 17.8236 20.9789C17.8236 19.2755 18.6361 17.7005 20.0486 16.6505C21.7486 15.3789 24.1736 15.1105 26.0861 15.8689V10.6655C26.0861 9.38219 25.0236 7.70218 23.8236 7.08385L17.1486 3.63049C16.5611 3.36216 15.7736 3.21051 14.9986 3.21051Z" fill="white"/>
</svg>
