<svg width="27" height="26" viewBox="0 0 27 26" fill="none" xmlns="http://www.w3.org/2000/svg">
<path d="M14.6248 15.9792H13.4998C13.0385 15.9792 12.656 15.6108 12.656 15.1667C12.656 14.7225 13.0385 14.3542 13.4998 14.3542H14.6248C15.401 14.3542 16.031 13.7475 16.031 13V2.97916H6.74976C5.42226 2.97916 4.20722 3.67247 3.55472 4.7883C3.32972 5.1783 2.81227 5.31918 2.40727 5.10251C2.00227 4.88584 1.85597 4.38749 2.08097 3.99749C3.02597 2.37249 4.81476 1.35416 6.74976 1.35416H16.8748C17.336 1.35416 17.7185 1.72249 17.7185 2.16666V13C17.7185 14.6467 16.3348 15.9792 14.6248 15.9792Z" fill="white"/>
<path d="M21.375 22.4792H20.25C19.7887 22.4792 19.4062 22.1108 19.4062 21.6667C19.4062 20.9192 18.7763 20.3125 18 20.3125C17.2238 20.3125 16.5938 20.9192 16.5938 21.6667C16.5938 22.1108 16.2113 22.4792 15.75 22.4792H11.25C10.7887 22.4792 10.4062 22.1108 10.4062 21.6667C10.4062 20.9192 9.77625 20.3125 9 20.3125C8.22375 20.3125 7.59375 20.9192 7.59375 21.6667C7.59375 22.1108 7.21125 22.4792 6.75 22.4792H5.625C3.29625 22.4792 1.40625 20.6592 1.40625 18.4167C1.40625 17.9725 1.78875 17.6042 2.25 17.6042C2.71125 17.6042 3.09375 17.9725 3.09375 18.4167C3.09375 19.76 4.23 20.8542 5.625 20.8542H6.01873C6.38998 19.6083 7.5825 18.6875 9 18.6875C10.4175 18.6875 11.61 19.6083 11.9812 20.8542H15.03C15.4012 19.6083 16.5938 18.6875 18.0112 18.6875C19.4288 18.6875 20.6213 19.6083 20.9925 20.8542H21.375C22.77 20.8542 23.9062 19.76 23.9062 18.4167V15.9792H21.375C20.295 15.9792 19.4062 15.1233 19.4062 14.0833V10.8333C19.4062 9.79332 20.2838 8.93749 21.375 8.93749L20.1712 6.91166C19.9237 6.48916 19.4513 6.22916 18.945 6.22916H17.7188V13C17.7188 14.6467 16.335 15.9792 14.625 15.9792H13.5C13.0387 15.9792 12.6562 15.6108 12.6562 15.1667C12.6562 14.7225 13.0387 14.3542 13.5 14.3542H14.625C15.4012 14.3542 16.0312 13.7475 16.0312 13V5.41666C16.0312 4.97249 16.4137 4.60416 16.875 4.60416H18.945C20.0588 4.60416 21.0825 5.17833 21.6337 6.11L23.5575 9.34916C23.7038 9.59832 23.7038 9.91249 23.5575 10.1617C23.4113 10.4108 23.13 10.5625 22.8263 10.5625H21.375C21.2175 10.5625 21.0938 10.6817 21.0938 10.8333V14.0833C21.0938 14.235 21.2175 14.3542 21.375 14.3542H24.75C25.2113 14.3542 25.5938 14.7225 25.5938 15.1667V18.4167C25.5938 20.6592 23.7038 22.4792 21.375 22.4792Z" fill="white"/>
<path d="M9 24.6458C7.29 24.6458 5.90625 23.3133 5.90625 21.6667C5.90625 20.02 7.29 18.6875 9 18.6875C10.71 18.6875 12.0938 20.02 12.0938 21.6667C12.0938 23.3133 10.71 24.6458 9 24.6458ZM9 20.3125C8.22375 20.3125 7.59375 20.9192 7.59375 21.6667C7.59375 22.4142 8.22375 23.0208 9 23.0208C9.77625 23.0208 10.4062 22.4142 10.4062 21.6667C10.4062 20.9192 9.77625 20.3125 9 20.3125Z" fill="white"/>
<path d="M18 24.6458C16.29 24.6458 14.9062 23.3133 14.9062 21.6667C14.9062 20.02 16.29 18.6875 18 18.6875C19.71 18.6875 21.0938 20.02 21.0938 21.6667C21.0938 23.3133 19.71 24.6458 18 24.6458ZM18 20.3125C17.2238 20.3125 16.5938 20.9192 16.5938 21.6667C16.5938 22.4142 17.2238 23.0208 18 23.0208C18.7762 23.0208 19.4062 22.4142 19.4062 21.6667C19.4062 20.9192 18.7762 20.3125 18 20.3125Z" fill="white"/>
<path d="M24.75 15.9792H21.375C20.295 15.9792 19.4062 15.1233 19.4062 14.0833V10.8333C19.4062 9.79333 20.295 8.9375 21.375 8.9375H22.8263C23.13 8.9375 23.4113 9.08917 23.5575 9.34917L25.4812 12.5992C25.5487 12.7183 25.5938 12.8592 25.5938 13V15.1667C25.5938 15.6108 25.2112 15.9792 24.75 15.9792ZM21.375 10.5625C21.2175 10.5625 21.0938 10.6817 21.0938 10.8333V14.0833C21.0938 14.235 21.2175 14.3542 21.375 14.3542H23.9062V13.2167L22.3313 10.5625H21.375Z" fill="white"/>
<path d="M9 9.47916H2.25C1.78875 9.47916 1.40625 9.11082 1.40625 8.66666C1.40625 8.22249 1.78875 7.85416 2.25 7.85416H9C9.46125 7.85416 9.84375 8.22249 9.84375 8.66666C9.84375 9.11082 9.46125 9.47916 9 9.47916Z" fill="white"/>
<path d="M6.75 12.7292H2.25C1.78875 12.7292 1.40625 12.3608 1.40625 11.9167C1.40625 11.4725 1.78875 11.1042 2.25 11.1042H6.75C7.21125 11.1042 7.59375 11.4725 7.59375 11.9167C7.59375 12.3608 7.21125 12.7292 6.75 12.7292Z" fill="white"/>
<path d="M4.5 15.9792H2.25C1.78875 15.9792 1.40625 15.6108 1.40625 15.1667C1.40625 14.7225 1.78875 14.3542 2.25 14.3542H4.5C4.96125 14.3542 5.34375 14.7225 5.34375 15.1667C5.34375 15.6108 4.96125 15.9792 4.5 15.9792Z" fill="white"/>
</svg>
