<svg width="31" height="30" viewBox="0 0 31 30" fill="none" xmlns="http://www.w3.org/2000/svg">
<path fill-rule="evenodd" clip-rule="evenodd" d="M12.742 3.60956C14.1968 2.19523 16.5251 2.13295 18.0204 3.39556L18.2559 3.60806L19.1844 4.5065C19.5031 4.81365 19.9215 5.00302 20.3665 5.04556L20.5586 5.05472H21.8864C23.958 5.05472 25.6519 6.62244 25.7703 8.59854L25.7769 8.81973V10.1035C25.7769 10.5407 25.9327 10.9611 26.2137 11.2953L26.3417 11.4331L27.2702 12.3316C28.7317 13.7396 28.7971 15.9911 27.4581 17.475L27.2834 17.6564L26.3425 18.5669C26.0262 18.8738 25.8304 19.2789 25.7863 19.709L25.7769 19.8948V21.181C25.7769 23.1856 24.157 24.8239 22.1149 24.9384L21.8864 24.9447H20.5586C20.1083 24.9447 19.6734 25.0961 19.3279 25.3689L19.1854 25.4931L18.2582 26.3891C16.8048 27.8053 14.4765 27.868 12.9426 26.5718L12.7435 26.3914L11.8173 25.495C11.4964 25.1868 11.0774 24.9966 10.6337 24.9539L10.4422 24.9447H9.11309C7.04238 24.9447 5.34881 23.3779 5.23048 21.4021L5.22388 21.181V19.8948C5.22388 19.4597 5.0672 19.0385 4.78552 18.7046L4.65723 18.5671L3.73094 17.6695C2.26803 16.2618 2.20314 14.0085 3.54262 12.5255L3.71737 12.3443L4.65528 11.4354C4.97426 11.1245 5.17036 10.7198 5.2144 10.2893L5.22388 10.1035V8.81973L5.23048 8.59856C5.34443 6.69585 6.9192 5.17144 8.88463 5.06113L9.11309 5.05472H10.4422C10.8923 5.05472 11.3273 4.90363 11.6723 4.63215L11.8144 4.50853L12.742 3.60956ZM16.9273 4.97167L16.8759 4.92539C16.1599 4.23569 15.0286 4.1953 14.2622 4.8032L14.1141 4.93342L13.1824 5.83624C12.5143 6.47823 11.6306 6.86207 10.6977 6.92159L10.4422 6.92972H9.11309C8.09581 6.92972 7.25919 7.68491 7.16937 8.64776L7.16138 8.81973V10.1035C7.16138 11.0149 6.8196 11.8914 6.2031 12.5765L6.0282 12.7584L5.08894 13.6686C4.37618 14.3615 4.33469 15.4561 4.96457 16.1986L5.0995 16.3422L6.02854 17.2426C6.69297 17.8871 7.09118 18.7437 7.15294 19.6473L7.16138 19.8948V21.181C7.16138 22.166 7.94116 22.9751 8.9355 23.062L9.11309 23.0697H10.4422C11.3823 23.0697 12.2887 23.4009 12.9968 23.9975L13.1848 24.1669L14.1191 25.071C14.8401 25.7649 15.9716 25.8053 16.7382 25.1956L16.8864 25.0651L17.8175 24.1652C18.4849 23.5224 19.3691 23.1376 20.3028 23.0779L20.5586 23.0697H21.8864C22.9051 23.0697 23.7416 22.3155 23.8314 21.3529L23.8394 21.181V19.8948C23.8394 18.9836 24.1814 18.1049 24.797 17.4229L24.9718 17.2419L25.9115 16.3325C26.6242 15.6388 26.6654 14.5447 26.0365 13.8024L25.9018 13.6589L24.9693 12.7565C24.3056 12.1096 23.9093 11.2553 23.8478 10.3512L23.8394 10.1035V8.81973C23.8394 7.83421 23.0591 7.02439 22.0641 6.93745L21.8864 6.92972H20.5586C19.6167 6.92972 18.7099 6.59924 18.0035 6.00304L17.816 5.83389L16.9273 4.97167ZM18.1307 18.878C18.3116 19.053 18.557 19.153 18.8153 19.153C19.0737 19.153 19.3191 19.053 19.4999 18.878C19.5903 18.7905 19.6678 18.678 19.7195 18.5655C19.7582 18.453 19.7841 18.3418 19.7841 18.2155C19.7841 18.0905 19.7582 17.9655 19.7195 17.853C19.6678 17.7405 19.5903 17.6405 19.4999 17.553C19.1382 17.203 18.4924 17.203 18.1307 17.553C18.0403 17.6405 17.9757 17.7405 17.9241 17.853C17.8724 17.9655 17.8466 18.0905 17.8466 18.2155C17.8466 18.3418 17.8724 18.453 17.9241 18.5655C17.9757 18.678 18.0403 18.7905 18.1307 18.878ZM12.176 12.7285C12.0469 12.7285 11.9306 12.7023 11.8144 12.6523C11.6981 12.6023 11.5819 12.541 11.4914 12.4535C11.401 12.3535 11.3364 12.2535 11.2848 12.141C11.2331 12.0272 11.2073 11.916 11.2073 11.791C11.2073 11.6647 11.2331 11.541 11.2848 11.4285C11.3364 11.316 11.401 11.2035 11.4914 11.1285C11.866 10.7772 12.4989 10.7772 12.8606 11.1285C13.0414 11.3022 13.1448 11.541 13.1448 11.791C13.1448 11.916 13.1319 12.0272 13.0802 12.141C13.0285 12.2535 12.951 12.3535 12.8606 12.4535C12.7702 12.541 12.6669 12.6023 12.5506 12.6523C12.4344 12.7023 12.3052 12.7285 12.176 12.7285ZM19.5046 11.1239C19.1262 10.7578 18.5129 10.7578 18.1346 11.1239L11.4954 17.549L11.4016 17.6541C11.1202 18.0211 11.1515 18.5419 11.4954 18.8748C11.8737 19.2409 12.4871 19.2409 12.8654 18.8748L19.5046 12.4498L19.5983 12.3446C19.8798 11.9776 19.8485 11.4568 19.5046 11.1239Z" fill="white"/>
</svg>
