<svg width="22" height="21" viewBox="0 0 22 21" fill="none" xmlns="http://www.w3.org/2000/svg">
<g clip-path="url(#clip0_14_175)">
<path d="M21.9257 20.1076V5.24598C21.9257 4.88988 21.7369 4.57669 21.4133 4.44369L11.3588 0.0675724C11.1251 -0.0225241 10.8464 -0.0225241 10.6127 0.0675724L0.558284 4.44369C0.230178 4.57669 0.0458984 4.88988 0.0458984 5.24598V20.1076C0.0458984 20.5967 0.468392 21 0.980778 21C1.49316 21 1.91566 20.5967 1.91566 20.1076V5.82517L11.0802 1.85234L20.1952 5.82517V20.1076C20.1952 20.5967 20.6177 21 21.1301 21C21.6425 21 22.0695 20.601 21.9257 20.1076Z" fill="white"/>
<path d="M14.0736 12.2521C14.586 12.2521 15.0085 11.8488 15.0085 11.3597V5.60207C15.0085 5.11298 14.586 4.70969 14.0736 4.70969H8.04181C7.52943 4.70969 7.10693 5.11298 7.10693 5.60207V11.3597C7.10693 11.8488 7.52943 12.2521 8.04181 12.2521H14.0736ZM8.97669 6.54165H13.1387V10.5145H8.97669V6.54165Z" fill="white"/>
<path d="M9.58335 13.4576H3.55158C3.03919 13.4576 2.6167 13.8609 2.6167 14.35V20.1076C2.6167 20.5967 3.03919 21 3.55158 21H9.58335C10.0957 21 10.5182 20.5967 10.5182 20.1076V14.35C10.5182 13.8609 10.0957 13.4576 9.58335 13.4576ZM8.64847 19.2624H4.48646V15.2896H8.64847V19.2624Z" fill="white"/>
<path d="M18.5592 13.4576H12.5274C12.015 13.4576 11.5925 13.8609 11.5925 14.35V20.1076C11.5925 20.5967 12.015 21 12.5274 21H18.5592C19.0716 21 19.4941 20.5967 19.4941 20.1076V14.35C19.4941 13.8609 19.0761 13.4576 18.5592 13.4576ZM17.6243 19.2624H13.4623V15.2896H17.6243V19.2624Z" fill="white"/>
</g>
<defs>
<clipPath id="clip0_14_175">
<rect width="22" height="21" fill="white"/>
</clipPath>
</defs>
</svg>
