<svg width="20" height="20" viewBox="0 0 20 20" fill="none" xmlns="http://www.w3.org/2000/svg">
<path fill-rule="evenodd" clip-rule="evenodd" d="M4.48311 0.815291C0.811521 1.99738 -0.826139 6.00569 0.404821 9.8295C1.02947 11.6301 2.04534 13.2485 3.38004 14.5762C5.21101 16.3545 7.22254 17.9194 9.3849 19.2491L9.6304 19.3961C9.8656 19.5369 10.1598 19.5344 10.3926 19.3897L10.6218 19.2473C12.7812 17.9194 14.7927 16.3545 16.6174 14.5824C17.9584 13.2485 18.9743 11.6301 19.5937 9.8452C20.8291 6.00801 19.1847 1.9978 15.512 0.815351L15.2463 0.736231C13.5624 0.273091 11.773 0.501301 10.2645 1.35535L9.9964 1.51429L9.733 1.35623C8.1419 0.453441 6.2404 0.250031 4.48311 0.815291ZM9.3746 2.85427L9.5714 2.99538C9.8307 3.18111 10.1806 3.17742 10.436 2.98625C11.766 1.99057 13.4873 1.70082 15.0641 2.20669C17.9097 3.12284 19.2047 6.28096 18.2064 9.382C17.665 10.9417 16.7687 12.3696 15.5916 13.5405L15.0636 14.0421C13.641 15.3642 12.1026 16.561 10.4691 17.6156L10.0013 17.9098L10.144 17.9998C8.0805 16.7308 6.15375 15.2319 4.40582 13.5343C3.23505 12.3696 2.33877 10.9417 1.79207 9.3664C0.798081 6.27801 2.08746 3.12212 4.93153 2.20646C6.43331 1.72339 8.0706 1.96289 9.3746 2.85427Z" fill="#373737"/>
</svg>
