<svg width="156" height="37" viewBox="0 0 156 37" fill="none" xmlns="http://www.w3.org/2000/svg">
<g clip-path="url(#clip0_22_624)">
<path d="M6.94772 7.0321H0V36.1924H7.2408C11.8447 36.1924 14.2304 33.7763 14.2304 29.2774V26.9027C14.2304 23.8202 13.2678 21.6123 10.7984 20.654C12.8493 19.696 13.77 17.7797 13.77 14.7804V13.739C13.77 9.24008 11.7193 7.0321 6.94772 7.0321ZM6.65464 23.0704C8.74745 23.0704 9.62629 23.9034 9.62629 26.611V29.1522C9.62629 31.3183 8.78932 32.0265 7.2406 32.0265H4.6039V23.0704H6.65464ZM6.82212 11.1978C8.45438 11.1978 9.16594 12.1144 9.16594 14.1972V15.8218C9.16594 18.1547 8.11963 18.9044 6.40344 18.9044H4.6037V11.1976H6.82192L6.82212 11.1978ZM21.5966 11.1978H29.5489V7.0321H16.9927V36.1924H29.5489V32.0267H21.5966V23.4871H27.9167V19.3213H21.5966V11.198V11.1978ZM41.3936 25.3198V29.4855C41.3936 31.5683 40.4727 32.3182 39.008 32.3182C37.543 32.3182 36.6221 31.5683 36.6221 29.4855V13.739C36.6221 11.6562 37.543 10.8647 39.008 10.8647C40.4727 10.8647 41.3936 11.6562 41.3936 13.739V16.8631H45.7465V14.0305C45.7465 9.36489 43.4025 6.69873 38.8824 6.69873C34.3622 6.69873 32.0182 9.3647 32.0182 14.0305V29.1938C32.0182 33.8594 34.3622 36.5256 38.8824 36.5256C43.4025 36.5256 45.7465 33.8596 45.7465 29.1938V25.3196H41.3936V25.3198ZM48.3416 23.6952H56.7124V19.5295H48.3416V23.6952ZM64.4554 11.198H69.6873V36.1926H74.375V7.0323H59.8515V36.1926H64.4554V11.198ZM87.9357 7.0323H81.1971L76.5095 36.1926H80.7367L81.532 30.9022H87.1824L87.9777 36.1926H92.6235L87.9359 7.0323H87.9357ZM84.3364 12.1979L86.5546 26.9446H82.1182L84.3364 12.1979ZM105.264 36.1926H109.993L103.589 20.0295L109.993 7.0323H105.389L99.3623 19.7379V7.0323H94.7584V36.1926H99.3623V27.2363L100.785 24.5703L105.264 36.1928L105.264 36.1926Z" fill="white"/>
<path fill-rule="evenodd" clip-rule="evenodd" d="M129.832 3.498C134.467 3.498 138.664 5.36298 141.707 8.38L138.618 11.4548C136.365 9.22483 133.26 7.84634 129.831 7.84634C122.949 7.84634 117.37 13.399 117.37 20.2488C117.37 27.0986 122.949 32.6513 129.831 32.6513C136.714 32.6513 142.292 27.0986 142.292 20.2488C142.292 19.8553 142.273 19.4663 142.237 19.0822L145.943 15.3941C146.41 16.9308 146.662 18.5605 146.662 20.2488C146.662 29.5002 139.126 36.9998 129.831 36.9998C120.536 36.9998 113.001 29.5002 113.001 20.2488C113.001 10.9974 120.536 3.4978 129.831 3.4978L129.832 3.498Z" fill="white"/>
<path fill-rule="evenodd" clip-rule="evenodd" d="M120.562 20.7213L124.133 17.1669L129.528 22.385L152.171 0L156 3.70558L129.528 29.7964L120.562 20.7213Z" fill="white"/>
</g>
<defs>
<clipPath id="clip0_22_624">
<rect width="156" height="37" fill="white"/>
</clipPath>
</defs>
</svg>
