<svg width="156" height="37" viewBox="0 0 156 37" fill="none" xmlns="http://www.w3.org/2000/svg">
<g clip-path="url(#clip0_7_33)">
<g filter="url(#filter0_i_7_33)">
<path d="M6.94772 7.03219H0V36.1925H7.2408C11.8447 36.1925 14.2304 33.7764 14.2304 29.2775V26.9028C14.2304 23.8203 13.2678 21.6124 10.7984 20.6541C12.8493 19.6961 13.77 17.7798 13.77 14.7805V13.7391C13.77 9.24017 11.7193 7.03219 6.94772 7.03219ZM6.65464 23.0704C8.74745 23.0704 9.62629 23.9035 9.62629 26.6111V29.1523C9.62629 31.3184 8.78932 32.0266 7.2406 32.0266H4.6039V23.0704H6.65464ZM6.82212 11.1979C8.45438 11.1979 9.16594 12.1145 9.16594 14.1973V15.8218C9.16594 18.1548 8.11963 18.9045 6.40344 18.9045H4.6037V11.1977H6.82192L6.82212 11.1979ZM21.5966 11.1979H29.5489V7.03219H16.9927V36.1925H29.5489V32.0268H21.5966V23.4872H27.9167V19.3214H21.5966V11.1981V11.1979ZM41.3936 25.3199V29.4856C41.3936 31.5684 40.4727 32.3183 39.008 32.3183C37.543 32.3183 36.6221 31.5684 36.6221 29.4856V13.7391C36.6221 11.6563 37.543 10.8648 39.008 10.8648C40.4727 10.8648 41.3936 11.6563 41.3936 13.7391V16.8632H45.7465V14.0306C45.7465 9.36499 43.4025 6.69882 38.8824 6.69882C34.3622 6.69882 32.0182 9.36479 32.0182 14.0306V29.1939C32.0182 33.8595 34.3622 36.5257 38.8824 36.5257C43.4025 36.5257 45.7465 33.8597 45.7465 29.1939V25.3197H41.3936V25.3199ZM48.3416 23.6953H56.7124V19.5296H48.3416V23.6953ZM64.4554 11.1981H69.6873V36.1927H74.375V7.03239H59.8515V36.1927H64.4554V11.1981ZM87.9357 7.03239H81.1971L76.5095 36.1927H80.7367L81.532 30.9023H87.1824L87.9777 36.1927H92.6235L87.9359 7.03239H87.9357ZM84.3364 12.198L86.5546 26.9447H82.1182L84.3364 12.198ZM105.264 36.1927H109.993L103.589 20.0296L109.993 7.03239H105.389L99.3623 19.7379V7.03239H94.7584V36.1927H99.3623V27.2364L100.785 24.5704L105.264 36.1929L105.264 36.1927Z" fill="#FFC107"/>
</g>
<path fill-rule="evenodd" clip-rule="evenodd" d="M129.832 3.49801C134.467 3.49801 138.664 5.36299 141.707 8.38002L138.618 11.4548C136.365 9.22484 133.26 7.84635 129.831 7.84635C122.949 7.84635 117.37 13.399 117.37 20.2488C117.37 27.0986 122.949 32.6513 129.831 32.6513C136.714 32.6513 142.292 27.0986 142.292 20.2488C142.292 19.8553 142.273 19.4663 142.237 19.0822L145.943 15.3941C146.41 16.9309 146.662 18.5605 146.662 20.2488C146.662 29.5002 139.126 36.9998 129.831 36.9998C120.536 36.9998 113.001 29.5002 113.001 20.2488C113.001 10.9974 120.536 3.49782 129.831 3.49782L129.832 3.49801Z" fill="black"/>
<path fill-rule="evenodd" clip-rule="evenodd" d="M120.562 20.7213L124.133 17.1669L129.528 22.385L152.171 0L156 3.70558L129.528 29.7964L120.562 20.7213Z" fill="#E31E24"/>
</g>
<defs>
<filter id="filter0_i_7_33" x="0" y="6.69882" width="109.993" height="31.8269" filterUnits="userSpaceOnUse" color-interpolation-filters="sRGB">
<feFlood flood-opacity="0" result="BackgroundImageFix"/>
<feBlend mode="normal" in="SourceGraphic" in2="BackgroundImageFix" result="shape"/>
<feColorMatrix in="SourceAlpha" type="matrix" values="0 0 0 0 0 0 0 0 0 0 0 0 0 0 0 0 0 0 127 0" result="hardAlpha"/>
<feOffset dy="2"/>
<feGaussianBlur stdDeviation="1"/>
<feComposite in2="hardAlpha" operator="arithmetic" k2="-1" k3="1"/>
<feColorMatrix type="matrix" values="0 0 0 0 0.890196 0 0 0 0 0.117647 0 0 0 0 0.141176 0 0 0 0.35 0"/>
<feBlend mode="normal" in2="shape" result="effect1_innerShadow_7_33"/>
</filter>
<clipPath id="clip0_7_33">
<rect width="156" height="37" fill="white"/>
</clipPath>
</defs>
</svg>
