<svg width="30" height="40" viewBox="0 0 30 40" fill="none" xmlns="http://www.w3.org/2000/svg">
<path d="M15 0C6.72656 0 0 6.72656 0 15C0 26.0625 13.8359 39.2188 14.4297 39.7734C14.5938 39.9219 14.7969 40 15 40C15.2031 40 15.4141 39.9219 15.5703 39.7734C16.1641 39.2188 30 26.0625 30 15C30 6.72656 23.2734 0 15 0ZM15 23.3359C10.4062 23.3359 6.66406 19.5938 6.66406 15C6.66406 10.4062 10.4062 6.66406 15 6.66406C19.5938 6.66406 23.3359 10.4062 23.3359 15C23.3359 19.5938 19.5938 23.3359 15 23.3359Z" fill="#E31E24"/>
</svg>
