<svg width="15" height="13" viewBox="0 0 15 13" fill="none" xmlns="http://www.w3.org/2000/svg">
<g clip-path="url(#clip0_9_75)">
<path d="M13.9101 0.14478L0.587272 5.38672C0.587272 5.38672 -0.0447785 5.60139 0.00498928 6.00077C0.054757 6.40016 0.567365 6.58487 0.567365 6.58487L3.91673 7.71813L3.92171 7.72312V7.71813L11.9642 2.59102C11.9642 2.59102 12.427 2.30645 12.4121 2.59102C12.4121 2.59102 12.4967 2.64094 12.2479 2.87558C11.999 3.11022 5.92735 8.5818 5.92735 8.5818L5.9174 8.68664L11.3819 12.8902C12.2926 13.2896 12.6261 12.4558 12.6261 12.4558L15 0.459296C15 -0.339475 13.9051 0.14478 13.9101 0.14478Z" fill="#1393E2"/>
<path d="M8.00775 10.2942L5.84285 12.2761C5.84285 12.2761 5.67364 12.4059 5.4895 12.326L5.90257 8.6467" fill="#1393E2"/>
</g>
<defs>
<clipPath id="clip0_9_75">
<rect width="15" height="13" fill="white"/>
</clipPath>
</defs>
</svg>
