<svg width="15" height="15" viewBox="0 0 15 15" fill="none" xmlns="http://www.w3.org/2000/svg">
<g clip-path="url(#clip0_5_486)">
<path d="M12.81 2.1791C11.4 0.776119 9.525 0 7.53 0C3.42 0 0.06 3.32836 0.06 7.43284C0.06 8.74627 0.405 10.0149 1.05 11.1493L0 15L3.96 13.9701C5.055 14.5672 6.285 14.8806 7.53 14.8806C11.64 14.8806 15 11.5522 15 7.44776C15 5.44776 14.22 3.58209 12.81 2.1791ZM7.53 13.6119C6.42 13.6119 5.325 13.3134 4.365 12.7463L4.14 12.6119L1.8 13.2388L2.43 10.9552L2.28 10.7164C1.665 9.73134 1.335 8.59701 1.335 7.43284C1.32 4.02985 4.11 1.25373 7.53 1.25373C9.195 1.25373 10.74 1.89552 11.925 3.0597C13.095 4.22388 13.74 5.77612 13.74 7.43284C13.74 10.8358 10.95 13.6119 7.53 13.6119ZM10.935 8.98507C10.755 8.89552 9.825 8.44776 9.66 8.38806C9.495 8.32836 9.36 8.29851 9.24 8.47761C9.12 8.65672 8.76 9.07463 8.655 9.20895C8.55 9.32836 8.43 9.34328 8.25 9.25373C8.07 9.16418 7.455 8.97015 6.75 8.32836C6.195 7.83582 5.82 7.22388 5.715 7.04478C5.61 6.86567 5.7 6.76119 5.79 6.67164C5.88 6.58209 5.97 6.44776 6.075 6.34328C6.165 6.23881 6.195 6.16418 6.255 6.02985C6.315 5.91045 6.285 5.79104 6.24 5.70149C6.195 5.61194 5.82 4.70149 5.67 4.32836C5.52 3.97015 5.37 4.01493 5.25 4.01493C5.145 4.01493 5.01 4.01493 4.89 4.01493C4.77 4.01493 4.56 4.0597 4.395 4.25373C4.23 4.43284 3.735 4.89552 3.735 5.80597C3.735 6.71642 4.41 7.59701 4.5 7.73134C4.59 7.85075 5.82 9.73134 7.695 10.5373C8.145 10.7313 8.49 10.8358 8.76 10.9254C9.21 11.0597 9.615 11.0448 9.93 11C10.29 10.9403 11.04 10.5522 11.19 10.1194C11.34 9.68657 11.34 9.31343 11.295 9.23881C11.25 9.1194 11.13 9.07463 10.935 8.98507Z" fill="#33CE62"/>
</g>
<defs>
<clipPath id="clip0_5_486">
<rect width="15" height="15" fill="white"/>
</clipPath>
</defs>
</svg>
